<?xml version="1.0" encoding="UTF-8" standalone="no"?>
<svg width="200" height="200" viewBox="0 0 200 200" xmlns="http://www.w3.org/2000/svg">
  <circle cx="100" cy="100" r="100" fill="#f0f0f0"/>
  
  <!-- Stylized person silhouette -->
  <!-- Hair -->
  <path d="M65,60 C65,45 135,45 135,60 L135,85 C135,65 65,65 65,85 Z" fill="#555555"/>
  
  <!-- Face -->
  <circle cx="100" cy="85" r="30" fill="#f5deb3"/>
  
  <!-- Eyes -->
  <ellipse cx="87" cy="80" rx="4" ry="5" fill="#333333"/>
  <ellipse cx="113" cy="80" rx="4" ry="5" fill="#333333"/>
  
  <!-- Glasses -->
  <circle cx="87" cy="80" r="10" fill="none" stroke="#333333" stroke-width="2"/>
  <circle cx="113" cy="80" r="10" fill="none" stroke="#333333" stroke-width="2"/>
  <line x1="97" y1="80" x2="103" y2="80" stroke="#333333" stroke-width="2"/>
  
  <!-- Beard -->
  <path d="M85,95 Q100,105 115,95 L115,105 Q100,115 85,105 Z" fill="#555555"/>
  
  <!-- Shoulders/Body -->
  <path d="M60,100 L60,140 C60,160 140,160 140,140 L140,100 Z" fill="#0A2463"/>
  
  <!-- Shirt collar -->
  <path d="M85,100 L100,115 L115,100" fill="#ffffff" stroke="#eeeeee" stroke-width="1"/>
</svg>