<?xml version="1.0" encoding="UTF-8" standalone="no"?>
<svg width="200" height="200" viewBox="0 0 200 200" xmlns="http://www.w3.org/2000/svg">
  <circle cx="100" cy="100" r="100" fill="#f0f0f0"/>
  
  <!-- Stylized person silhouette -->
  <!-- Hair -->
  <path d="M100,40 C60,40 60,80 60,100 L140,100 C140,80 140,40 100,40 Z" fill="#333333"/>
  
  <!-- Face -->
  <circle cx="100" cy="85" r="30" fill="#f5d5c5"/>
  
  <!-- Eyes -->
  <ellipse cx="87" cy="80" rx="4" ry="5" fill="#333333"/>
  <ellipse cx="113" cy="80" rx="4" ry="5" fill="#333333"/>
  
  <!-- Smile -->
  <path d="M85,95 Q100,105 115,95" fill="none" stroke="#333333" stroke-width="2"/>
  
  <!-- Shoulders/Body -->
  <path d="M60,100 L60,140 C60,160 140,160 140,140 L140,100 Z" fill="#1E56A0"/>
  
  <!-- Lab coat collar -->
  <path d="M75,100 L85,120 L100,105 L115,120 L125,100" fill="#f0f0f0" stroke="#dddddd" stroke-width="1"/>
</svg>